# Blender 3.3.1
# www.blender.org
mtllib table.mtl
o Cube
v -3.497569 -1.010681 3.500000
v -3.497569 -0.696172 3.500000
v -3.497569 -1.010681 -3.500000
v -3.497569 -0.696172 -3.500000
v 3.502431 -1.010681 3.500000
v 3.502431 -0.696172 3.500000
v 3.502431 -1.010681 -3.500000
v 3.502431 -0.696172 -3.500000
v -3.497569 -1.010681 -0.000000
v 0.002431 -1.010681 -3.500000
v 3.502431 -1.010681 -0.000000
v 0.002431 -1.010681 3.500000
v 0.002431 -1.010681 -0.000000
v -3.497569 -1.010681 1.750000
v -1.747569 -1.010681 -3.500000
v 3.502431 -1.010681 -1.750000
v 1.752431 -1.010681 3.500000
v -3.497569 -1.010681 -1.750000
v 1.752431 -1.010681 -3.500000
v 3.502431 -1.010681 1.750000
v -1.747569 -1.010681 3.500000
v 0.002431 -1.010681 1.750000
v 0.002431 -1.010681 -1.750000
v -1.747569 -1.010681 -0.000000
v 1.752431 -1.010681 -0.000000
v 1.752431 -1.010681 -1.750000
v -1.747569 -1.010681 -1.750000
v -1.747569 -1.010681 1.750000
v 1.752431 -1.010681 1.750000
v 2.627431 -1.010681 3.500000
v 3.502431 -1.010681 2.625000
v 1.752431 -1.010681 2.625000
v 2.627431 -1.010681 1.750000
v 2.627431 -1.010681 2.625000
v 3.064931 -1.010681 3.500000
v 3.502431 -1.010681 3.062500
v 2.627431 -1.010681 3.062500
v 3.064931 -1.010681 2.625000
v 3.064931 -1.010681 3.062500
v 3.502431 -1.010681 -2.625000
v 2.627431 -1.010681 -3.500000
v 1.752431 -1.010681 -2.625000
v 2.627431 -1.010681 -1.750000
v 2.627431 -1.010681 -2.625000
v 3.502431 -1.010681 -3.062500
v 3.064931 -1.010681 -3.500000
v 2.627431 -1.010681 -3.062500
v 3.064931 -1.010681 -2.625000
v 3.064931 -1.010681 -3.062500
v -3.497569 -1.010681 2.625000
v -2.622569 -1.010681 3.500000
v -1.747569 -1.010681 2.625000
v -2.622569 -1.010681 1.750000
v -2.622569 -1.010681 2.625000
v -3.497569 -1.010681 3.062500
v -3.060069 -1.010681 3.500000
v -2.622569 -1.010681 3.062500
v -3.060069 -1.010681 2.625000
v -3.060069 -1.010681 3.062500
v -2.622569 -1.010681 -3.500000
v -3.497569 -1.010681 -2.625000
v -1.747569 -1.010681 -2.625000
v -2.622569 -1.010681 -1.750000
v -2.622569 -1.010681 -2.625000
v -3.060069 -1.010681 -3.500000
v -3.497569 -1.010681 -3.062500
v -2.622569 -1.010681 -3.062500
v -3.060069 -1.010681 -2.625000
v -3.060069 -1.010681 -3.062500
v -3.497569 -3.688678 3.062500
v -3.497569 -3.688678 3.500000
v -3.060069 -3.688678 -3.500000
v -3.497569 -3.688678 -3.500000
v 3.502431 -3.688678 -3.062500
v 3.502431 -3.688678 -3.500000
v 3.064931 -3.688678 3.500000
v 3.502431 -3.688678 3.500000
v 3.502431 -3.688678 3.062500
v 3.064931 -3.688678 3.062500
v 3.064931 -3.688678 -3.500000
v 3.064931 -3.688678 -3.062500
v -3.060069 -3.688678 3.500000
v -3.060069 -3.688678 3.062500
v -3.497569 -3.688678 -3.062500
v -3.060069 -3.688678 -3.062500
vn -1.0000 -0.0000 -0.0000
vn -0.0000 -0.0000 -1.0000
vn 1.0000 -0.0000 -0.0000
vn -0.0000 -0.0000 1.0000
vn -0.0000 1.0000 -0.0000
vn -0.0000 -1.0000 -0.0000
vt 0.375000 0.000000
vt 0.375000 1.000000
vt 0.625000 0.000000
vt 0.625000 1.000000
vt 0.875000 0.750000
vt 0.375000 0.250000
vt 0.625000 0.250000
vt 0.875000 0.500000
vt 0.375000 0.750000
vt 0.625000 0.750000
vt 0.375000 0.500000
vt 0.625000 0.500000
vt 0.375000 0.125000
vt 0.125000 0.625000
vt 0.375000 0.375000
vt 0.250000 0.500000
vt 0.375000 0.625000
vt 0.375000 0.875000
vt 0.250000 0.750000
vt 0.250000 0.625000
vt 0.375000 0.062500
vt 0.125000 0.687500
vt 0.375000 0.312500
vt 0.187500 0.500000
vt 0.375000 0.562500
vt 0.375000 0.812500
vt 0.312500 0.750000
vt 0.375000 0.187500
vt 0.125000 0.562500
vt 0.375000 0.437500
vt 0.312500 0.500000
vt 0.375000 0.687500
vt 0.375000 0.937500
vt 0.187500 0.750000
vt 0.250000 0.687500
vt 0.250000 0.562500
vt 0.187500 0.625000
vt 0.312500 0.625000
vt 0.312500 0.562500
vt 0.187500 0.562500
vt 0.187500 0.687500
vt 0.312500 0.687500
vt 0.375000 0.781250
vt 0.343750 0.750000
vt 0.375000 0.718750
vt 0.312500 0.718750
vt 0.343750 0.687500
vt 0.343750 0.718750
vt 0.359375 0.750000
vt 0.375000 0.765625
vt 0.375000 0.734375
vt 0.343750 0.734375
vt 0.359375 0.718750
vt 0.359375 0.734375
vt 0.375000 0.531250
vt 0.375000 0.468750
vt 0.343750 0.500000
vt 0.312500 0.531250
vt 0.343750 0.562500
vt 0.343750 0.531250
vt 0.375000 0.515625
vt 0.375000 0.484375
vt 0.359375 0.500000
vt 0.343750 0.515625
vt 0.359375 0.531250
vt 0.359375 0.515625
vt 0.375000 0.031250
vt 0.125000 0.718750
vt 0.375000 0.968750
vt 0.156250 0.750000
vt 0.187500 0.718750
vt 0.156250 0.687500
vt 0.156250 0.718750
vt 0.125000 0.734375
vt 0.375000 0.015625
vt 0.375000 0.984375
vt 0.140625 0.750000
vt 0.156250 0.734375
vt 0.140625 0.718750
vt 0.140625 0.734375
vt 0.375000 0.281250
vt 0.156250 0.500000
vt 0.375000 0.218750
vt 0.125000 0.531250
vt 0.187500 0.531250
vt 0.156250 0.562500
vt 0.156250 0.531250
vt 0.375000 0.265625
vt 0.140625 0.500000
vt 0.125000 0.515625
vt 0.375000 0.234375
vt 0.156250 0.515625
vt 0.140625 0.531250
vt 0.140625 0.515625
vt 0.125000 0.734375
vt 0.375000 0.015625
vt 0.125000 0.750000
vt 0.375000 0.000000
vt 0.375000 1.000000
vt 0.375000 0.265625
vt 0.140625 0.500000
vt 0.125000 0.500000
vt 0.375000 0.250000
vt 0.375000 0.515625
vt 0.375000 0.500000
vt 0.359375 0.750000
vt 0.375000 0.765625
vt 0.375000 0.750000
vt 0.375000 0.734375
vt 0.359375 0.734375
vt 0.375000 0.484375
vt 0.359375 0.500000
vt 0.359375 0.515625
vt 0.375000 0.984375
vt 0.140625 0.750000
vt 0.140625 0.734375
vt 0.125000 0.515625
vt 0.375000 0.234375
vt 0.140625 0.515625
s 0
usemtl Material.004
f 1/1/1 2/3/1 4/7/1 3/6/1 66/91/1 61/83/1 18/28/1 9/13/1 14/21/1 50/67/1 55/75/1
f 3/6/2 4/7/2 8/12/2 7/11/2 46/62/2 41/56/2 19/30/2 10/15/2 15/23/2 60/81/2 65/88/2
f 7/11/3 8/12/3 6/10/3 5/9/3 36/51/3 31/45/3 20/32/3 11/17/3 16/25/3 40/55/3 45/61/3
f 5/9/4 6/10/4 2/4/4 1/2/4 56/76/4 51/69/4 21/33/4 12/18/4 17/26/4 30/43/4 35/50/4
f 55/74/2 59/80/2 83/116/2 70/95/2
f 8/12/5 4/8/5 2/5/5 6/10/5
f 28/41/6 22/35/6 12/19/6 21/34/6 52/71/6
f 27/40/6 23/36/6 13/20/6 24/37/6
f 26/39/6 43/59/6 16/25/6 11/17/6 25/38/6
f 23/36/6 26/39/6 25/38/6 13/20/6
f 10/16/6 19/31/6 42/58/6 26/39/6 23/36/6
f 44/60/6 48/65/6 40/55/6 16/25/6 43/59/6
f 18/29/6 63/86/6 27/40/6 24/37/6 9/14/6
f 64/87/6 62/85/6 27/40/6 63/86/6
f 15/24/6 10/16/6 23/36/6 27/40/6 62/85/6
f 54/73/6 52/71/6 21/34/6 51/70/6 57/78/6
f 9/14/6 24/37/6 28/41/6 53/72/6 14/22/6
f 24/37/6 13/20/6 22/35/6 28/41/6
f 22/35/6 29/42/6 32/46/6 17/27/6 12/19/6
f 13/20/6 25/38/6 29/42/6 22/35/6
f 25/38/6 11/17/6 20/32/6 33/47/6 29/42/6
f 32/46/6 34/48/6 37/52/6 30/44/6 17/27/6
f 29/42/6 33/47/6 34/48/6 32/46/6
f 33/47/6 20/32/6 31/45/6 38/53/6 34/48/6
f 37/52/6 39/54/6 35/49/6 30/44/6
f 34/48/6 38/53/6 39/54/6 37/52/6
f 38/53/6 31/45/6 36/51/6 39/54/6
f 42/58/6 44/60/6 43/59/6 26/39/6
f 19/31/6 41/57/6 47/64/6 44/60/6 42/58/6
f 49/66/6 45/61/6 40/55/6 48/65/6
f 47/64/6 49/66/6 48/65/6 44/60/6
f 41/57/6 46/63/6 49/66/6 47/64/6
f 45/61/4 49/66/4 81/113/4 74/104/4
f 59/80/6 57/78/6 51/70/6 56/77/6
f 14/22/6 53/72/6 54/73/6 58/79/6 50/68/6
f 53/72/6 28/41/6 52/71/6 54/73/6
f 3/6/2 65/88/2 72/100/2 73/103/2
f 50/68/6 58/79/6 59/80/6 55/74/6
f 58/79/6 54/73/6 57/78/6 59/80/6
f 61/84/6 68/93/6 64/87/6 63/86/6 18/29/6
f 69/94/6 67/92/6 64/87/6 68/93/6
f 60/82/6 15/24/6 62/85/6 64/87/6 67/92/6
f 66/90/6 69/94/6 68/93/6 61/84/6
f 39/54/2 36/51/2 78/109/2 79/110/2
f 65/89/6 60/82/6 67/92/6 69/94/6
f 79/110/6 78/109/6 77/108/6 76/106/6
f 80/112/6 75/105/6 74/104/6 81/113/6
f 70/95/6 83/116/6 82/115/6 71/97/6
f 73/102/6 72/101/6 85/119/6 84/117/6
f 36/51/3 5/9/3 77/108/3 78/109/3
f 65/89/3 69/94/3 85/119/3 72/101/3
f 69/94/4 66/90/4 84/117/4 85/119/4
f 46/62/2 7/11/2 75/105/2 80/111/2
f 7/11/3 45/61/3 74/104/3 75/105/3
f 1/1/1 55/75/1 70/96/1 71/98/1
f 56/76/4 1/2/4 71/99/4 82/114/4
f 35/49/1 39/54/1 79/110/1 76/106/1
f 66/91/1 3/6/1 73/103/1 84/118/1
f 5/9/4 35/50/4 76/107/4 77/108/4
f 49/66/1 46/63/1 80/112/1 81/113/1
f 59/80/3 56/77/3 82/115/3 83/116/3
