# Blender 3.3.1
# www.blender.org
mtllib walls.mtl
o Plane
v 1.000000 -3.733537 -1.000000
v -1.000000 -3.733537 -1.000000
v 1.000000 -3.733537 1.000000
v -1.000000 -3.733537 1.000000
v -7.285289 -3.733173 7.285289
v 7.285289 -3.733173 7.285289
v -7.285289 -3.733173 -7.285289
v 7.285289 -3.733173 -7.285289
v -7.285289 6.465438 7.285289
v 7.285289 6.465438 7.285289
v -7.285289 6.465438 -7.285289
v 7.285289 6.465438 -7.285289
vn -0.0000 -0.0000 1.0000
vn -1.0000 -0.0000 -0.0000
vn 1.0000 -0.0000 -0.0000
vt 0.000000 0.000000
vt 1.000000 0.000000
vt 0.000000 1.000000
vt 1.000000 1.000000
vt 0.000000 0.000000
vt 1.000000 0.000000
vt 0.000000 1.000000
vt 1.000000 1.000000
s 0
usemtl Material.005
f 7/3/1 8/4/1 12/8/1 11/7/1
f 8/4/2 6/2/2 10/6/2 12/8/2
f 5/1/3 7/3/3 11/7/3 9/5/3
